<?xml version="1.0" encoding="UTF-8" standalone="no"?>
<!DOCTYPE svg PUBLIC "-//W3C//DTD SVG 1.1//EN" "http://www.w3.org/Graphics/SVG/1.1/DTD/svg11.dtd">
<svg xmlns="http://www.w3.org/2000/svg" version="1.1" viewBox="0.00 0.00 776.00 512.00">
<g stroke-width="2.00" fill="none" stroke-linecap="butt">
<path stroke="#9a8f22" vector-effect="non-scaling-stroke" d="
  M 102.36 337.78
  Q 99.16 343.84 97.37 345.36
  Q 94.30 347.98 91.51 350.89
  C 90.59 351.84 88.88 351.93 87.84 352.37
  Q 82.81 354.49 75.25 355.61
  Q 70.16 356.37 66.86 355.82
  Q 66.51 355.76 66.25 355.51
  L 65.41 354.66
  A 0.67 0.57 71.2 0 0 65.19 354.53
  Q 64.50 354.31 64.57 354.81
  A 0.62 0.62 0.0 0 1 63.72 355.46
  L 57.00 352.64
  Q 56.91 352.60 56.86 352.51
  Q 56.80 352.35 56.72 352.22
  Q 56.62 352.04 56.42 352.01
  Q 54.07 351.61 52.42 350.14
  Q 49.74 347.76 49.46 347.56
  Q 43.15 342.99 40.61 335.03"
/>
<path stroke="#76802a" stroke-opacity="0.525" vector-effect="non-scaling-stroke" d="
  M 89.86 377.39
  Q 70.79 378.59 52.31 377.38"
/>
</g>
<path fill="#006533" d="
  M 65.42 226.99
  Q 65.90 228.07 65.94 226.89
  Q 68.07 163.21 108.70 114.44
  C 123.87 96.24 142.37 79.33 163.03 70.80
  C 176.00 65.45 189.54 61.59 200.68 52.68
  Q 209.36 45.74 217.89 38.64
  C 224.79 32.89 230.66 26.79 232.11 17.56
  Q 232.37 15.87 232.66 17.55
  C 237.02 42.60 235.07 78.02 208.08 90.93
  C 178.28 105.18 145.82 112.33 116.04 126.63
  Q 109.11 129.95 103.84 134.08
  C 100.01 137.08 98.32 140.22 95.30 145.36
  C 74.42 180.89 63.31 220.96 69.71 262.48
  Q 69.84 263.31 69.36 262.62
  C 68.73 261.72 68.10 260.79 67.91 259.62
  Q 65.50 244.44 65.88 229.12
  A 0.19 0.19 0.0 0 0 65.79 228.94
  Q 48.51 218.17 41.70 200.51
  Q 36.67 187.48 38.47 173.11
  C 39.03 168.68 40.87 163.96 42.28 159.51
  Q 43.20 156.64 42.85 149.29
  C 42.65 144.98 42.73 143.62 40.63 140.43
  Q 40.59 140.36 40.65 140.40
  C 47.53 143.81 54.29 150.46 53.84 158.76
  Q 53.68 161.81 50.58 170.04
  Q 47.46 178.36 44.56 186.75
  C 43.13 190.93 42.35 194.61 43.64 199.03
  Q 48.83 216.84 64.89 226.60
  Q 65.38 226.90 65.42 226.99
  Z"
/>
<path fill="#1c1c1a" d="
  M 299.72 361.54
  C 266.18 360.51 232.93 357.00 200.39 348.55
  C 162.97 338.84 121.17 317.12 105.79 279.68
  C 96.12 256.15 97.57 229.23 110.13 206.84
  C 121.52 186.55 139.72 170.46 159.23 158.23
  C 189.08 139.52 218.71 127.09 252.75 122.23
  C 270.33 119.71 292.45 118.62 307.20 130.53
  Q 312.55 134.84 313.32 142.15
  Q 313.34 142.33 313.18 142.43
  Q 313.06 142.51 312.93 142.60
  A 0.20 0.19 63.0 0 1 312.64 142.50
  C 305.66 123.24 267.91 124.05 252.22 126.28
  Q 243.86 127.47 232.80 130.91
  C 197.91 141.75 158.00 160.31 139.34 193.83
  C 127.04 215.93 127.38 241.22 133.90 265.12
  Q 135.39 270.58 138.18 275.46
  C 155.31 305.48 183.73 329.75 216.82 340.74
  Q 242.76 349.36 269.99 352.14
  Q 286.83 353.86 304.48 354.67
  A 0.99 0.97 -77.7 0 0 305.43 354.05
  C 312.54 336.24 320.54 313.14 317.99 293.75
  C 316.60 283.21 309.84 274.70 301.70 267.55
  Q 294.12 260.88 285.24 260.13
  C 263.01 258.24 246.89 270.37 229.20 281.30
  C 228.33 281.84 226.87 282.28 225.97 282.28
  A 1.20 1.20 0.0 0 1 224.84 280.68
  C 231.71 261.13 261.56 255.89 279.25 256.14
  C 291.91 256.32 302.61 261.46 313.19 268.95
  C 328.61 279.87 339.47 294.02 337.98 313.99
  C 336.39 335.31 325.94 354.78 316.17 374.81
  C 309.14 389.21 302.41 404.23 298.27 419.75
  C 292.76 440.38 302.98 470.10 318.04 484.46
  Q 318.23 484.63 317.99 484.73
  L 314.76 485.99
  A 0.53 0.51 -36.2 0 1 314.25 485.92
  C 293.84 470.06 280.07 448.35 282.17 422.00
  C 283.85 400.78 292.07 381.45 300.03 362.02
  A 0.35 0.34 -78.3 0 0 299.72 361.54
  Z"
/>
<circle fill="#1c1c1a" cx="671.94" cy="223.48" r="15.83"/>
<path fill="#1c1c1a" d="
  M 515.54 276.40
  Q 514.44 296.19 513.65 316.00
  C 513.35 323.58 513.27 331.75 516.89 337.91
  C 523.14 348.58 535.91 345.34 545.17 340.51
  Q 547.34 339.38 547.12 341.81
  L 546.22 351.79
  Q 546.17 352.31 545.77 352.64
  C 530.62 364.90 503.98 364.45 496.13 343.48
  Q 493.51 336.48 493.36 329.00
  Q 492.83 302.88 492.49 276.70
  Q 492.49 276.22 492.00 276.24
  L 476.70 276.76
  Q 476.10 276.78 476.24 276.20
  L 479.60 262.78
  Q 479.72 262.29 480.23 262.29
  L 492.20 262.29
  A 0.49 0.48 -90.0 0 0 492.68 261.80
  L 492.85 238.77
  Q 492.86 238.12 493.48 237.95
  L 516.96 231.28
  A 0.20 0.19 82.8 0 1 517.21 231.48
  L 516.11 261.91
  A 0.37 0.37 0.0 0 0 516.48 262.29
  L 551.12 262.29
  Q 552.55 262.29 552.68 263.72
  C 553.86 277.27 523.50 276.22 516.09 275.89
  Q 515.56 275.87 515.54 276.40
  Z"
/>
<path fill="#1c1c1a" d="
  M 576.70 261.79
  L 576.80 238.67
  Q 576.80 238.12 577.33 237.97
  L 600.94 231.27
  A 0.19 0.19 0.0 0 1 601.18 231.46
  L 600.09 261.80
  Q 600.07 262.28 600.55 262.28
  L 635.49 262.31
  A 1.45 1.45 0.0 0 1 636.91 264.03
  Q 635.65 270.40 630.15 272.66
  C 621.03 276.39 609.47 276.40 599.83 275.84
  Q 599.43 275.82 599.41 276.22
  Q 598.42 297.24 597.45 318.25
  C 596.42 340.66 606.95 352.12 629.54 340.33
  A 1.04 1.04 0.0 0 1 631.06 341.34
  L 630.17 351.71
  Q 630.12 352.27 629.68 352.63
  C 619.61 360.79 604.48 363.28 592.83 357.93
  C 582.03 352.96 577.43 340.27 577.21 328.50
  Q 576.71 302.60 576.42 276.69
  Q 576.42 276.22 575.95 276.23
  L 560.69 276.76
  A 0.48 0.48 0.0 0 1 560.21 276.17
  L 563.47 263.05
  A 1.00 0.99 6.6 0 1 564.44 262.29
  L 576.21 262.28
  Q 576.69 262.28 576.70 261.79
  Z"
/>
<path fill="#1c1c1a" d="
  M 438.08 317.46
  C 427.50 335.70 412.38 359.55 388.79 360.69
  C 369.71 361.62 355.88 348.47 354.60 329.81
  C 352.55 299.73 378.89 272.22 405.24 263.29
  Q 422.51 257.44 440.11 262.02
  A 0.61 0.60 11.1 0 0 440.86 261.52
  L 441.84 253.97
  A 1.18 1.18 0.0 0 1 443.54 253.06
  L 459.85 261.13
  A 0.71 0.69 -74.6 0 1 460.23 261.82
  Q 458.31 284.49 457.18 307.25
  C 456.20 326.87 455.63 341.80 457.96 358.17
  A 2.06 2.06 0.0 0 1 456.21 360.50
  C 440.79 362.77 435.93 343.48 436.90 332.24
  Q 437.53 324.91 438.41 317.57
  Q 438.51 316.72 438.08 317.46
  Z
  M 374.66 304.94
  Q 371.24 314.76 373.25 323.27
  C 377.39 340.83 397.98 343.22 410.99 334.22
  C 426.96 323.17 435.01 299.75 438.49 281.40
  Q 438.57 280.98 438.16 280.85
  Q 421.31 275.62 406.26 279.00
  C 392.65 282.06 379.31 291.60 374.66 304.94
  Z"
/>
<path fill="#1c1c1a" d="
  M 660.20 279.72
  A 1.54 1.53 20.5 0 0 659.67 278.56
  Q 652.60 272.47 645.56 266.16
  Q 643.96 264.72 645.11 263.55
  A 1.06 1.05 -70.0 0 1 645.79 263.23
  L 684.43 259.98
  Q 684.92 259.94 684.89 260.43
  L 680.04 358.00
  Q 680.03 358.34 679.70 358.38
  L 660.92 360.68
  A 0.30 0.30 0.0 0 1 660.58 360.38
  L 660.20 279.72
  Z"
/>
<path fill="#b89817" d="
  M 102.36 337.78
  Q 99.16 343.84 97.37 345.36
  Q 94.30 347.98 91.51 350.89
  C 90.59 351.84 88.88 351.93 87.84 352.37
  Q 82.81 354.49 75.25 355.61
  Q 70.16 356.37 66.86 355.82
  Q 66.51 355.76 66.25 355.51
  L 65.41 354.66
  A 0.67 0.57 71.2 0 0 65.19 354.53
  Q 64.50 354.31 64.57 354.81
  A 0.62 0.62 0.0 0 1 63.72 355.46
  L 57.00 352.64
  Q 56.91 352.60 56.86 352.51
  Q 56.80 352.35 56.72 352.22
  Q 56.62 352.04 56.42 352.01
  Q 54.07 351.61 52.42 350.14
  Q 49.74 347.76 49.46 347.56
  Q 43.15 342.99 40.61 335.03
  C 43.43 324.51 49.75 318.27 55.95 310.50
  C 64.29 300.07 70.57 286.46 69.61 273.02
  Q 69.59 272.79 69.82 272.80
  L 70.15 272.80
  Q 70.32 272.81 70.32 272.98
  C 69.85 287.28 77.57 301.77 86.85 311.90
  C 94.59 320.34 100.15 326.78 102.36 337.78
  Z"
/>
<path fill="#7c862c" d="
  M 40.61 335.03
  Q 43.15 342.99 49.46 347.56
  Q 49.74 347.76 52.42 350.14
  Q 54.07 351.61 56.42 352.01
  Q 56.62 352.04 56.72 352.22
  Q 56.80 352.35 56.86 352.51
  Q 56.91 352.60 57.00 352.64
  L 63.72 355.46
  A 0.62 0.62 0.0 0 0 64.57 354.81
  Q 64.50 354.31 65.19 354.53
  A 0.67 0.57 71.2 0 1 65.41 354.66
  L 66.25 355.51
  Q 66.51 355.76 66.86 355.82
  Q 70.16 356.37 75.25 355.61
  Q 82.81 354.49 87.84 352.37
  C 88.88 351.93 90.59 351.84 91.51 350.89
  Q 94.30 347.98 97.37 345.36
  Q 99.16 343.84 102.36 337.78
  C 105.48 355.66 93.96 370.53 76.00 371.94
  C 67.83 372.58 59.67 371.95 52.28 367.42
  C 41.07 360.56 37.36 347.74 40.61 335.03
  Z"
/>
<path fill="#7c862c" d="
  M 89.86 377.39
  Q 70.79 378.59 52.31 377.38
  C 60.53 372.36 66.88 372.78 77.00 372.99
  Q 82.65 373.11 89.86 377.39
  Z"
/>
<path fill="#090802" fill-opacity="0.051" d="
  M 52.31 377.38
  Q 70.79 378.59 89.86 377.39
  Q 98.78 382.16 101.87 392.75
  C 105.25 404.30 100.09 418.69 92.16 427.18
  C 81.04 439.06 73.33 449.77 70.29 465.67
  Q 70.11 466.60 69.90 465.68
  Q 68.95 461.44 67.63 456.81
  Q 64.16 444.59 56.82 435.47
  C 50.11 427.15 43.37 420.43 40.36 409.50
  Q 39.59 406.73 39.84 399.49
  Q 40.04 393.59 41.58 389.74
  Q 44.89 381.44 52.31 377.38
  Z"
/>
<path fill="#006533" d="
  M 671.14 392.17
  L 668.20 389.81
  A 0.35 0.35 0.0 0 1 668.40 389.19
  L 676.21 388.66
  A 0.35 0.35 0.0 0 1 676.59 389.02
  L 675.54 420.90
  A 0.35 0.35 0.0 0 1 675.24 421.24
  L 671.93 421.69
  A 0.35 0.35 0.0 0 1 671.54 421.34
  L 671.27 392.44
  A 0.35 0.35 0.0 0 0 671.14 392.17
  Z"
/>
<path fill="#006533" d="
  M 406.54 413.30
  C 404.09 418.66 396.49 425.46 390.66 419.45
  Q 388.15 416.87 388.97 412.74
  C 390.57 404.67 398.27 398.69 406.56 399.78
  Q 407.15 399.86 407.14 399.27
  L 407.02 393.06
  Q 407.01 392.46 406.52 392.10
  L 403.76 390.11
  A 0.37 0.36 -30.0 0 1 403.94 389.45
  L 411.49 388.68
  Q 412.10 388.62 412.08 389.23
  C 411.80 399.88 411.18 410.56 411.74 421.20
  Q 411.76 421.68 411.28 421.69
  C 407.41 421.76 407.03 416.98 407.08 413.42
  Q 407.10 412.08 406.54 413.30
  Z
  M 400.31 416.33
  C 404.40 414.27 406.47 408.84 407.01 404.65
  A 0.55 0.54 10.9 0 0 406.60 404.06
  C 401.15 402.68 393.89 404.54 392.99 410.99
  C 392.34 415.65 396.16 418.41 400.31 416.33
  Z"
/>
<path fill="#006533" d="
  M 537.69 397.70
  L 536.84 419.33
  Q 536.77 420.96 535.45 421.92
  L 534.87 422.36
  A 0.72 0.72 0.0 0 1 533.73 421.78
  Q 533.70 408.70 533.94 395.50
  Q 533.96 394.75 530.62 391.12
  A 0.22 0.22 0.0 0 1 530.76 390.75
  L 539.27 389.96
  Q 539.62 389.93 539.81 390.23
  L 554.87 413.91
  Q 555.48 414.88 555.47 413.73
  L 555.28 391.04
  A 0.53 0.53 0.0 0 1 555.71 390.52
  L 558.97 389.98
  A 0.48 0.48 0.0 0 1 559.53 390.48
  L 558.37 419.71
  Q 558.35 420.30 557.79 420.49
  L 555.25 421.34
  Q 554.72 421.52 554.41 421.06
  L 538.18 397.56
  Q 537.72 396.89 537.69 397.70
  Z"
/>
<path fill="#006533" d="
  M 331.56 410.96
  L 331.23 418.42
  Q 331.14 420.29 329.57 421.31
  L 328.17 422.21
  Q 326.78 423.11 326.76 421.45
  L 326.56 395.02
  A 1.46 1.45 24.0 0 0 326.20 394.09
  L 323.61 391.14
  A 0.33 0.33 0.0 0 1 323.83 390.59
  Q 330.66 390.12 337.50 390.33
  C 343.57 390.51 349.83 395.35 346.75 402.00
  C 344.20 407.53 337.69 409.06 332.08 410.34
  Q 331.58 410.45 331.56 410.96
  Z
  M 332.12 406.88
  C 343.48 406.83 346.51 392.36 332.62 393.36
  Q 332.20 393.38 332.19 393.80
  L 331.71 406.45
  Q 331.69 406.88 332.12 406.88
  Z"
/>
<path fill="#006533" d="
  M 467.61 403.81
  C 467.36 407.85 464.68 421.02 473.39 417.59
  Q 474.58 417.12 474.50 418.39
  L 474.47 418.92
  Q 474.38 420.49 472.89 420.97
  C 460.18 425.05 462.71 410.58 462.53 403.76
  Q 462.52 403.23 461.99 403.24
  L 459.78 403.28
  Q 458.96 403.30 459.17 402.50
  L 459.59 400.91
  A 1.09 1.08 -81.6 0 1 460.67 400.10
  L 461.99 400.14
  Q 462.63 400.16 462.63 399.52
  L 462.63 395.16
  Q 462.63 394.81 462.96 394.72
  L 467.77 393.35
  A 0.20 0.19 82.8 0 1 468.02 393.55
  L 467.79 399.57
  Q 467.77 400.12 468.32 400.12
  L 475.18 400.15
  A 0.63 0.63 0.0 0 1 475.70 401.13
  L 475.43 401.54
  Q 474.60 402.78 473.11 402.90
  L 468.14 403.27
  Q 467.64 403.31 467.61 403.81
  Z"
/>
<path fill="#006533" d="
  M 619.86 411.43
  Q 618.61 414.75 616.18 417.92
  C 611.63 423.87 604.38 423.08 604.13 414.50
  Q 603.99 409.52 603.99 404.54
  A 1.17 1.17 0.0 0 0 603.59 403.66
  L 601.85 402.15
  Q 601.43 401.79 600.93 402.01
  Q 597.66 403.48 594.04 403.15
  Q 593.48 403.10 593.43 403.66
  C 592.95 409.00 590.57 421.53 599.68 417.36
  Q 600.29 417.08 600.26 417.75
  L 600.21 419.20
  A 1.35 1.33 -16.3 0 1 599.63 420.24
  C 595.04 423.33 588.92 421.61 588.53 415.49
  Q 588.37 412.90 588.30 403.78
  Q 588.29 403.23 587.74 403.24
  L 585.49 403.28
  Q 584.94 403.29 584.93 402.74
  C 584.91 402.23 585.08 401.66 585.18 401.13
  Q 585.44 399.75 587.25 400.17
  Q 588.38 400.43 588.38 399.27
  L 588.37 395.16
  Q 588.37 394.80 588.71 394.71
  L 593.52 393.36
  A 0.20 0.19 -6.2 0 1 593.77 393.56
  L 593.52 399.62
  Q 593.50 400.24 594.12 400.22
  L 608.86 399.88
  Q 609.31 399.86 609.28 400.31
  C 609.01 404.33 607.79 412.63 609.36 416.09
  A 2.01 2.00 -25.5 0 0 612.09 417.05
  C 616.75 414.69 619.75 405.37 620.70 400.76
  Q 620.83 400.13 621.47 400.05
  L 624.46 399.70
  Q 625.03 399.63 625.02 400.21
  L 624.57 420.71
  Q 624.54 422.10 623.28 421.49
  L 622.02 420.87
  A 3.06 3.06 0.0 0 1 620.32 418.18
  L 620.23 411.49
  A 0.19 0.19 0.0 0 0 619.86 411.43
  Z"
/>
<path fill="#006533" d="
  M 579.00 412.98
  C 576.38 417.47 572.04 422.97 566.47 421.52
  C 558.80 419.53 560.50 410.51 564.16 405.97
  Q 570.09 398.63 579.50 399.87
  Q 579.94 399.92 580.01 399.49
  L 580.16 398.62
  Q 580.28 397.95 580.89 398.25
  L 583.80 399.68
  Q 584.35 399.94 584.28 400.55
  Q 583.23 410.49 583.61 420.48
  Q 583.67 422.27 582.02 421.60
  L 581.68 421.46
  A 3.72 3.69 -86.0 0 1 579.47 418.89
  Q 578.79 416.04 579.39 413.13
  Q 579.65 411.86 579.00 412.98
  Z
  M 571.78 416.69
  C 576.30 415.02 578.49 409.05 579.37 404.56
  A 0.35 0.35 0.0 0 0 579.13 404.17
  Q 572.74 402.27 567.72 406.19
  C 563.25 409.69 564.65 419.33 571.78 416.69
  Z"
/>
<path fill="#006533" d="
  M 662.66 413.33
  C 660.60 417.10 655.97 422.73 650.91 421.69
  C 646.69 420.82 644.13 416.99 645.01 412.74
  C 646.74 404.40 654.78 398.32 663.38 399.92
  Q 663.91 400.02 663.97 399.49
  L 664.07 398.53
  A 0.45 0.44 17.0 0 1 664.72 398.19
  L 667.76 399.74
  Q 668.21 399.97 668.16 400.47
  Q 667.15 410.23 667.40 420.10
  Q 667.47 422.73 665.23 421.35
  Q 662.53 419.70 663.12 413.47
  Q 663.22 412.31 662.66 413.33
  Z
  M 655.30 416.83
  C 660.06 415.32 662.26 409.33 663.24 404.67
  Q 663.32 404.28 662.93 404.16
  Q 657.72 402.56 652.97 405.18
  C 649.52 407.09 647.48 412.34 650.21 415.65
  Q 652.03 417.86 655.30 416.83
  Z"
/>
<path fill="#006533" d="
  M 356.14 406.86
  C 359.05 402.90 360.97 399.60 366.43 399.60
  Q 366.86 399.60 366.81 400.02
  L 366.24 404.45
  Q 366.19 404.82 365.82 404.79
  C 357.16 404.11 355.44 414.20 355.45 420.68
  Q 355.45 421.18 354.95 421.25
  L 351.78 421.68
  Q 351.31 421.74 351.31 421.28
  L 351.25 404.30
  A 1.05 1.03 -69.9 0 0 350.89 403.51
  L 348.02 401.02
  A 0.42 0.41 62.6 0 1 348.25 400.29
  L 356.12 399.64
  A 0.34 0.34 0.0 0 1 356.49 400.00
  L 355.83 406.74
  Q 355.77 407.37 356.14 406.86
  Z"
/>
<path fill="#006533" d="
  M 432.11 411.43
  C 429.80 415.52 426.16 423.72 419.78 421.36
  C 414.87 419.53 415.94 408.45 416.13 404.56
  Q 416.15 404.07 415.78 403.74
  L 412.85 401.18
  A 0.46 0.46 0.0 0 1 413.11 400.37
  L 420.76 399.67
  Q 421.38 399.61 421.35 400.23
  C 421.14 404.21 419.89 412.62 421.44 416.07
  A 2.04 2.04 0.0 0 0 424.30 417.02
  C 428.98 414.40 431.86 405.40 432.86 400.62
  Q 432.97 400.11 433.49 400.05
  L 436.89 399.67
  Q 437.14 399.64 437.13 399.89
  L 436.67 420.79
  Q 436.64 422.11 435.45 421.51
  L 434.09 420.83
  Q 432.46 420.00 432.44 418.17
  L 432.36 411.49
  Q 432.35 411.00 432.11 411.43
  Z"
/>
<path fill="#006533" d="
  M 453.72 402.84
  C 438.60 401.60 441.67 424.47 459.12 416.63
  A 0.16 0.15 84.4 0 1 459.33 416.81
  L 458.95 418.83
  Q 458.89 419.12 458.63 419.27
  C 451.49 423.41 439.71 422.68 438.96 412.50
  C 438.26 402.92 450.51 398.37 458.43 400.08
  Q 458.98 400.19 458.93 400.75
  L 458.50 405.23
  Q 458.42 406.06 457.75 405.56
  L 454.60 403.17
  Q 454.21 402.88 453.72 402.84
  Z"
/>
<path fill="#006533" d="
  M 512.53 414.33
  Q 508.21 412.61 503.77 411.28
  C 499.44 409.98 498.70 405.55 502.09 402.73
  C 506.17 399.34 512.79 398.98 517.72 400.39
  Q 518.19 400.52 518.15 401.02
  L 517.77 405.49
  A 0.28 0.28 0.0 0 1 517.31 405.68
  C 515.73 404.38 514.38 402.67 512.27 402.48
  C 510.17 402.29 506.46 402.61 505.39 404.77
  A 1.63 1.63 0.0 0 0 506.28 407.02
  Q 510.06 408.45 513.76 409.28
  C 517.70 410.17 520.64 413.73 517.82 417.56
  C 514.19 422.47 505.67 422.39 500.69 420.55
  Q 500.15 420.35 500.04 419.77
  L 499.77 418.29
  Q 499.68 417.84 500.13 417.95
  Q 507.69 419.87 511.99 417.57
  Q 513.84 416.58 513.24 415.05
  Q 513.04 414.54 512.53 414.33
  Z"
/>
<path fill="#006533" d="
  M 634.19 406.87
  C 637.19 402.84 638.89 399.65 644.51 399.58
  Q 644.88 399.58 644.83 399.94
  L 644.27 404.49
  Q 644.23 404.76 643.96 404.75
  C 635.03 404.35 633.52 414.00 633.45 420.72
  A 0.55 0.54 87.0 0 1 632.98 421.25
  L 629.92 421.66
  Q 629.37 421.73 629.36 421.17
  L 629.27 404.33
  Q 629.27 403.79 628.85 403.43
  L 627.02 401.89
  Q 625.23 400.38 627.56 400.19
  L 633.95 399.66
  Q 634.55 399.61 634.49 400.20
  L 633.87 406.75
  Q 633.81 407.38 634.19 406.87
  Z"
/>
<path fill="#006533" d="
  M 685.14 412.95
  Q 682.64 413.04 684.40 414.82
  L 685.14 415.58
  Q 687.13 417.60 689.97 417.72
  Q 694.73 417.91 699.19 416.13
  A 0.20 0.19 -3.2 0 1 699.45 416.36
  L 698.91 418.51
  Q 698.83 418.80 698.58 418.96
  C 692.26 422.82 682.75 423.37 678.90 415.77
  Q 677.26 412.52 678.56 408.95
  C 680.91 402.50 688.41 398.97 695.00 399.74
  C 699.49 400.27 701.22 405.37 698.09 408.60
  C 695.10 411.68 688.97 412.81 685.14 412.95
  Z
  M 683.51 410.43
  C 686.91 410.03 691.88 409.19 693.93 406.10
  A 2.12 2.12 0.0 0 0 693.32 403.16
  Q 691.90 402.24 689.76 402.77
  Q 684.06 404.18 683.03 409.92
  A 0.44 0.43 -88.5 0 0 683.51 410.43
  Z"
/>
<path fill="#006533" d="
  M 714.20 414.77
  A 1.60 1.56 -6.3 0 0 713.30 414.07
  Q 708.82 412.68 704.59 411.08
  C 699.69 409.21 700.31 404.72 704.14 402.09
  C 708.19 399.29 714.15 399.10 718.79 400.34
  Q 719.34 400.48 719.30 401.06
  L 718.94 405.23
  Q 718.88 405.98 718.28 405.52
  C 716.79 404.37 715.68 402.88 713.82 402.53
  Q 709.79 401.77 706.79 404.27
  A 1.52 1.52 0.0 0 0 707.15 406.83
  Q 710.48 408.31 713.99 409.08
  C 718.25 410.01 722.63 413.51 718.52 418.02
  C 714.43 422.51 706.80 422.40 701.54 420.45
  Q 701.22 420.33 701.18 420.00
  L 700.92 417.97
  A 0.16 0.16 0.0 0 1 701.13 417.80
  Q 707.46 420.00 713.17 417.40
  Q 715.20 416.47 714.20 414.77
  Z"
/>
<path fill="#006533" d="
  M 370.66 402.21
  Q 370.41 402.02 370.23 401.75
  Q 369.92 401.27 370.45 401.04
  C 375.99 398.66 384.94 398.95 387.71 405.26
  C 391.40 413.67 382.69 421.80 374.75 421.69
  C 365.46 421.55 362.41 411.16 368.85 405.11
  Q 369.86 404.15 370.76 403.08
  Q 371.17 402.59 370.66 402.21
  Z
  M 381.31 416.54
  C 385.56 412.25 383.69 403.56 376.62 402.95
  C 373.06 402.64 370.51 408.29 370.44 411.00
  C 370.29 417.07 376.52 421.38 381.31 416.54
  Z"
/>
<path fill="#006533" d="
  M 481.31 402.48
  L 480.62 401.67
  Q 480.29 401.28 480.76 401.07
  C 487.12 398.33 497.66 399.36 498.81 407.51
  C 499.97 415.67 491.63 422.75 483.78 421.59
  C 473.76 420.12 473.71 408.18 481.17 403.39
  Q 481.76 403.01 481.31 402.48
  Z
  M 492.22 415.72
  C 495.93 410.41 493.33 402.63 486.01 403.03
  Q 485.60 403.05 485.27 403.29
  C 474.70 410.83 485.74 424.99 492.22 415.72
  Z"
/>
</svg>
