<?xml version="1.0" encoding="UTF-8" standalone="no"?>
<!DOCTYPE svg PUBLIC "-//W3C//DTD SVG 1.1//EN" "http://www.w3.org/Graphics/SVG/1.1/DTD/svg11.dtd">
<svg xmlns="http://www.w3.org/2000/svg" version="1.1" viewBox="0.00 0.00 201.00 147.00">
<g stroke-width="2.00" fill="none" stroke-linecap="butt">
<path stroke="#f8a502" vector-effect="non-scaling-stroke" d="
  M 141.66 40.20
  Q 142.15 40.93 141.66 41.64
  Q 141.55 41.82 141.52 41.61
  Q 141.50 41.38 141.38 41.37
  A 0.09 0.09 0.0 0 0 141.29 41.46
  L 141.37 47.69"
/>
<path stroke="#f8a502" vector-effect="non-scaling-stroke" d="
  M 60.76 73.43
  L 60.49 73.81
  Q 60.32 74.05 60.53 74.27
  L 60.75 74.50
  Q 60.90 74.65 60.69 74.62
  Q 60.44 74.59 60.23 74.77
  A 0.22 0.21 -17.7 0 1 59.87 74.59
  Q 59.97 73.68 59.25 74.16
  Q 58.66 74.55 58.66 74.56
  Q 58.33 74.96 57.46 75.12"
/>
</g>
<path fill="#ffbe00" d="
  M 141.66 40.20
  Q 142.15 40.93 141.66 41.64
  Q 141.55 41.82 141.52 41.61
  Q 141.50 41.38 141.38 41.37
  A 0.09 0.09 0.0 0 0 141.29 41.46
  L 141.37 47.69
  Q 133.48 51.57 125.74 55.30
  Q 123.48 56.40 120.02 55.88
  A 1.76 1.76 0.0 0 1 118.57 53.73
  C 120.33 46.49 124.60 39.70 125.12 32.25
  Q 125.70 24.09 118.30 21.17
  C 103.12 15.17 99.35 35.91 96.57 45.28
  Q 95.42 49.13 92.05 49.05
  Q 89.81 48.99 87.63 46.76
  C 81.47 40.45 74.23 24.75 63.15 27.61
  C 58.78 28.74 56.15 34.39 57.14 38.62
  C 58.62 44.96 63.46 50.17 68.48 55.47
  Q 70.53 57.64 72.05 60.32
  A 1.12 1.12 0.0 0 1 72.09 61.32
  Q 71.08 63.52 67.99 62.92
  Q 58.51 61.07 54.00 59.82
  C 51.79 59.21 47.37 58.78 48.37 62.27
  C 49.91 67.69 55.79 71.40 60.76 73.43
  L 60.49 73.81
  Q 60.32 74.05 60.53 74.27
  L 60.75 74.50
  Q 60.90 74.65 60.69 74.62
  Q 60.44 74.59 60.23 74.77
  A 0.22 0.21 -17.7 0 1 59.87 74.59
  Q 59.97 73.68 59.25 74.16
  Q 58.66 74.55 58.66 74.56
  Q 58.33 74.96 57.46 75.12
  C 52.00 72.17 40.04 63.20 40.88 56.00
  C 41.64 49.44 55.19 54.42 58.90 55.26
  Q 59.81 55.47 59.23 54.74
  C 52.86 46.71 48.40 41.24 48.39 31.52
  C 48.38 22.17 55.84 16.19 64.68 16.69
  C 75.73 17.32 83.71 27.86 89.23 36.17
  A 0.48 0.48 0.0 0 0 90.09 36.04
  C 92.04 29.11 94.63 20.42 99.11 15.48
  C 108.24 5.41 125.61 6.26 131.93 19.09
  C 136.02 27.42 133.36 36.12 129.84 45.02
  Q 129.59 45.67 130.22 45.38
  L 141.66 40.20
  Z"
/>
<path fill="#f18b04" d="
  M 57.46 75.12
  Q 58.33 74.96 58.66 74.56
  Q 58.66 74.55 59.25 74.16
  Q 59.97 73.68 59.87 74.59
  A 0.22 0.21 -17.7 0 0 60.23 74.77
  Q 60.44 74.59 60.69 74.62
  Q 60.90 74.65 60.75 74.50
  L 60.53 74.27
  Q 60.32 74.05 60.49 73.81
  L 60.76 73.43
  Q 68.78 76.13 77.08 77.67
  Q 78.81 77.99 79.73 79.46
  A 0.71 0.71 0.0 0 1 79.67 80.30
  L 77.83 82.50
  A 2.01 2.00 46.7 0 0 77.76 84.98
  Q 78.62 86.14 80.48 86.59
  C 85.46 87.78 92.58 89.10 97.43 87.07
  C 99.88 86.05 101.26 83.05 104.24 83.56
  C 107.48 84.11 110.90 85.02 113.97 85.04
  C 118.31 85.07 130.96 83.02 133.34 78.82
  A 1.11 1.11 0.0 0 0 132.49 77.17
  Q 128.67 76.76 125.10 75.50
  Q 123.39 74.90 123.57 73.08
  Q 123.69 71.90 125.82 71.09
  Q 137.54 66.61 142.72 62.95
  C 146.49 60.28 153.53 52.49 148.82 48.20
  C 146.78 46.35 143.75 46.80 141.37 47.69
  L 141.29 41.46
  A 0.09 0.09 0.0 0 1 141.38 41.37
  Q 141.50 41.38 141.52 41.61
  Q 141.55 41.82 141.66 41.64
  Q 142.15 40.93 141.66 40.20
  Q 148.33 36.74 154.29 39.68
  C 155.79 40.43 157.24 42.81 157.28 44.48
  C 157.66 57.34 145.91 66.54 135.16 71.33
  Q 133.50 72.07 135.28 72.44
  C 137.06 72.80 139.35 72.22 140.80 73.85
  A 1.02 1.00 -61.2 0 1 141.03 74.66
  C 140.33 79.16 131.36 83.20 127.42 84.86
  Q 117.28 89.12 106.14 87.09
  Q 105.65 87.00 105.22 87.27
  Q 99.05 91.21 91.00 90.50
  C 85.98 90.06 67.48 89.21 70.26 80.23
  A 0.52 0.52 0.0 0 0 69.87 79.57
  Q 63.33 78.17 57.46 75.12
  Z"
/>
<path fill="#fc6d12" d="
  M 92.50 111.25
  L 97.99 111.23
  A 0.27 0.27 0.0 0 1 98.26 111.50
  L 98.24 115.26
  Q 98.24 115.50 97.99 115.50
  L 92.54 115.51
  Q 92.11 115.51 92.10 115.95
  Q 91.73 130.31 92.13 134.60
  Q 92.76 141.35 99.03 140.48
  A 0.86 0.85 -3.9 0 1 100.00 141.32
  L 100.00 141.76
  Q 100.00 143.23 98.53 143.33
  C 88.56 143.96 85.23 138.64 85.14 130.00
  Q 84.97 114.52 85.02 99.34
  Q 85.02 99.10 85.26 99.10
  L 91.67 99.16
  Q 92.00 99.17 92.00 99.49
  L 92.00 110.75
  Q 92.00 111.26 92.50 111.25
  Z"
/>
<path fill="#fc6d12" d="
  M 35.01 125.51
  C 35.02 119.72 31.89 113.01 25.53 113.45
  C 20.65 113.79 16.94 118.25 16.90 123.00
  Q 16.84 130.95 16.91 138.49
  A 0.41 0.41 0.0 0 1 16.50 138.91
  L 10.45 138.88
  Q 10.03 138.88 10.02 138.45
  Q 9.89 126.56 10.06 123.24
  C 10.84 108.46 35.21 106.82 40.54 119.19
  C 42.55 123.86 41.66 133.05 41.65 138.52
  Q 41.65 138.94 41.23 138.94
  L 35.30 138.91
  Q 34.91 138.91 34.91 138.52
  Q 35.00 132.27 35.01 125.51
  Z"
/>
<path fill="#fc6d12" d="
  M 125.16 138.66
  C 116.15 141.06 104.56 136.89 104.13 125.99
  Q 103.98 121.99 104.10 111.86
  A 0.61 0.61 0.0 0 1 104.71 111.25
  L 110.50 111.23
  Q 111.04 111.23 111.03 111.77
  Q 110.81 124.11 111.11 127.71
  Q 111.60 133.71 116.80 135.89
  C 124.48 139.09 128.94 131.73 128.98 125.24
  Q 129.02 118.23 129.01 111.52
  A 0.26 0.26 0.0 0 1 129.27 111.26
  L 135.64 111.20
  Q 135.91 111.20 135.91 111.47
  C 135.80 122.01 138.61 135.08 125.16 138.66
  Z"
/>
<path fill="#fc6d12" d="
  M 157.53 114.19
  C 152.25 113.25 149.20 116.64 149.14 121.51
  Q 149.04 130.20 149.08 138.65
  A 0.36 0.35 -0.0 0 1 148.72 139.00
  L 142.52 138.99
  A 0.36 0.36 0.0 0 1 142.16 138.62
  C 142.39 126.70 138.78 108.81 157.70 111.39
  A 0.30 0.30 0.0 0 1 157.96 111.70
  L 157.83 113.96
  Q 157.81 114.24 157.53 114.19
  Z"
/>
<path fill="#fc6d12" d="
  M 68.85 134.77
  Q 69.36 134.61 69.31 135.13
  L 69.19 136.43
  Q 69.13 137.12 68.51 137.43
  Q 62.45 140.47 56.60 138.40
  C 45.97 134.63 43.06 121.00 52.79 114.32
  C 60.41 109.08 73.71 110.54 77.34 120.14
  C 79.15 124.92 78.33 132.62 78.41 138.32
  Q 78.42 138.92 77.82 138.92
  L 72.05 138.96
  Q 71.51 138.96 71.50 138.42
  Q 71.48 132.01 71.49 125.25
  C 71.49 119.10 67.57 111.67 60.19 114.11
  C 53.96 116.18 52.59 124.34 54.53 129.81
  Q 57.54 138.23 68.85 134.77
  Z"
/>
<path fill="#fc6d12" d="
  M 180.28 134.66
  Q 181.43 134.18 181.06 135.37
  L 180.80 136.24
  Q 180.43 137.42 179.28 137.88
  C 171.30 141.09 162.43 137.96 159.34 129.94
  C 157.15 124.28 159.21 117.82 164.54 114.35
  C 170.10 110.73 176.69 110.21 182.60 113.21
  C 192.28 118.13 189.95 129.30 190.02 138.41
  Q 190.02 138.97 189.46 138.96
  L 183.67 138.88
  A 0.62 0.62 0.0 0 1 183.06 138.26
  Q 183.15 126.57 183.01 123.02
  C 182.82 118.08 179.57 114.13 174.54 113.69
  C 161.48 112.56 161.89 142.27 180.28 134.66
  Z"
/>
</svg>
