<?xml version="1.0" encoding="UTF-8" standalone="no"?>
<!DOCTYPE svg PUBLIC "-//W3C//DTD SVG 1.1//EN" "http://www.w3.org/Graphics/SVG/1.1/DTD/svg11.dtd">
<svg xmlns="http://www.w3.org/2000/svg" version="1.1" viewBox="0.00 0.00 254.00 59.00">
<ellipse fill="#78b705" cx="0.00" cy="0.00" transform="translate(26.47,15.47) rotate(92.9)" rx="6.01" ry="5.76"/>
<circle fill="#e2df44" cx="13.26" cy="17.25" r="5.00"/>
<circle fill="#e2df44" cx="39.59" cy="17.13" r="5.06"/>
<path fill="#78b705" d="
  M 231.17 41.41
  Q 232.23 41.15 232.95 39.88
  C 235.41 35.55 226.76 34.31 224.00 33.69
  C 218.89 32.54 214.09 29.01 214.53 23.14
  C 214.87 18.51 218.88 15.36 223.26 14.55
  C 230.89 13.13 241.11 13.67 242.45 23.50
  A 0.79 0.79 0.0 0 1 241.71 24.40
  L 233.99 24.73
  Q 233.43 24.76 233.07 24.34
  C 230.95 21.95 229.62 19.28 225.87 20.91
  A 2.09 2.09 0.0 0 0 224.70 23.47
  Q 225.04 24.54 226.39 24.82
  Q 232.07 25.99 237.50 28.03
  C 242.46 29.90 244.77 35.25 243.24 40.24
  C 240.78 48.25 231.08 49.26 224.25 48.44
  Q 215.27 47.35 213.41 38.30
  A 1.46 1.46 0.0 0 1 214.76 36.55
  L 222.27 36.13
  A 1.31 1.30 81.8 0 1 223.61 37.14
  Q 224.96 42.93 231.17 41.41
  Z"
/>
<path fill="#78b705" d="
  M 119.3888 30.8034
  A 17.74 17.52 -2.8 0 1 102.5258 49.1691
  A 17.74 17.52 -2.8 0 1 83.9512 32.5366
  A 17.74 17.52 -2.8 0 1 100.8142 14.1709
  A 17.74 17.52 -2.8 0 1 119.3888 30.8034
  Z
  M 110.11 31.71
  A 8.48 8.48 0.0 0 0 101.63 23.23
  A 8.48 8.48 0.0 0 0 93.15 31.71
  A 8.48 8.48 0.0 0 0 101.63 40.19
  A 8.48 8.48 0.0 0 0 110.11 31.71
  Z"
/>
<path fill="#78b705" d="
  M 75.81 23.98
  L 75.73 47.02
  A 0.96 0.96 0.0 0 1 74.78 47.97
  L 66.21 48.01
  A 0.96 0.96 0.0 0 1 65.24 47.04
  L 65.29 24.09
  A 0.96 0.96 0.0 0 0 64.34 23.13
  L 57.49 23.05
  A 0.96 0.96 0.0 0 1 56.54 22.06
  L 56.74 15.56
  A 0.96 0.96 0.0 0 1 57.70 14.63
  L 83.57 14.60
  A 0.96 0.96 0.0 0 1 84.53 15.56
  L 84.53 22.12
  A 0.96 0.96 0.0 0 1 83.56 23.08
  L 76.78 23.02
  A 0.96 0.96 0.0 0 0 75.81 23.98
  Z"
/>
<path fill="#78b705" d="
  M 138.33 24.27
  L 138.26 46.80
  A 1.24 1.24 0.0 0 1 137.02 48.04
  L 128.75 48.00
  A 1.24 1.24 0.0 0 1 127.52 46.77
  L 127.50 24.27
  A 1.24 1.24 0.0 0 0 126.23 23.03
  L 120.20 23.15
  A 1.24 1.24 0.0 0 1 118.94 21.96
  L 118.71 15.74
  A 1.24 1.24 0.0 0 1 119.95 14.46
  L 145.71 14.56
  A 1.24 1.24 0.0 0 1 146.95 15.82
  L 146.85 21.84
  A 1.24 1.24 0.0 0 1 145.60 23.06
  L 139.57 23.04
  A 1.24 1.24 0.0 0 0 138.33 24.27
  Z"
/>
<path fill="#78b705" d="
  M 168.47 24.09
  L 168.34 46.92
  A 1.07 1.07 0.0 0 1 167.27 47.98
  L 158.60 48.01
  A 1.07 1.07 0.0 0 1 157.53 46.94
  L 157.57 24.08
  A 1.07 1.07 0.0 0 0 156.48 23.01
  L 150.12 23.12
  A 1.07 1.07 0.0 0 1 149.03 22.01
  L 149.26 15.63
  A 1.07 1.07 0.0 0 1 150.33 14.60
  L 175.88 14.53
  A 1.07 1.07 0.0 0 1 176.96 15.61
  L 176.93 22.02
  A 1.07 1.07 0.0 0 1 175.85 23.09
  L 169.55 23.03
  A 1.07 1.07 0.0 0 0 168.47 24.09
  Z"
/>
<path fill="#78b705" d="
  M 189.52 34.50
  C 189.46 42.51 200.45 42.86 200.49 34.40
  Q 200.54 25.09 200.49 15.89
  A 1.29 1.28 89.8 0 1 201.77 14.59
  L 210.21 14.62
  A 0.84 0.83 0.0 0 1 211.05 15.45
  Q 211.04 25.38 211.03 35.51
  C 211.01 43.27 205.62 47.71 198.24 48.44
  C 174.43 50.79 178.79 31.10 179.03 15.92
  A 1.39 1.39 0.0 0 1 180.45 14.55
  L 188.32 14.69
  A 1.18 1.18 0.0 0 1 189.48 15.86
  Q 189.58 25.29 189.52 34.50
  Z"
/>
<circle fill="#42762f" cx="26.44" cy="30.16" r="6.35"/>
<circle fill="#78b705" cx="11.65" cy="30.14" r="5.84"/>
<circle fill="#78b705" cx="41.19" cy="30.15" r="5.86"/>
<circle fill="#e2df44" cx="13.27" cy="43.16" r="5.02"/>
<circle fill="#e2df44" cx="39.58" cy="43.13" r="5.01"/>
<circle fill="#78b705" cx="26.43" cy="44.81" r="5.82"/>
</svg>
