<?xml version="1.0" encoding="UTF-8" standalone="no"?>
<!DOCTYPE svg PUBLIC "-//W3C//DTD SVG 1.1//EN" "http://www.w3.org/Graphics/SVG/1.1/DTD/svg11.dtd">
<svg xmlns="http://www.w3.org/2000/svg" version="1.1" viewBox="0.00 0.00 252.00 94.00">
<path stroke="#098752" stroke-width="2.00" fill="none" stroke-linecap="butt" vector-effect="non-scaling-stroke" d="
  M 37.71 36.77
  L 37.06 34.01"
/>
<path fill="#03713e" d="
  M 37.71 36.77
  L 37.06 34.01
  C 38.76 29.18 36.48 24.06 32.68 21.04
  A 1.48 1.47 -52.6 0 1 32.41 19.02
  Q 36.13 13.90 41.15 10.09
  A 0.94 0.93 -34.6 0 1 42.51 10.33
  Q 42.97 11.06 43.09 12.23
  C 43.80 18.95 44.83 32.35 37.71 36.77
  Z"
/>
<path fill="#0f9c65" d="
  M 37.06 34.01
  L 37.71 36.77
  C 34.99 37.66 34.71 38.86 32.75 40.63
  A 0.54 0.54 0.0 0 1 31.85 40.22
  Q 31.88 33.32 27.37 28.13
  A 0.27 0.27 0.0 0 0 26.90 28.37
  C 27.52 30.88 29.37 33.98 29.25 36.50
  A 0.63 0.63 0.0 0 1 28.22 36.95
  C 25.16 34.38 21.85 31.82 19.79 28.53
  Q 15.73 22.04 14.72 14.42
  A 0.59 0.59 0.0 0 1 15.46 13.77
  Q 23.78 16.04 30.75 20.98
  Q 37.17 25.54 37.06 34.01
  Z"
/>
<path fill="#de1459" d="
  M 42.45 38.55
  Q 42.25 38.44 42.34 38.23
  L 42.34 38.22
  Q 42.43 38.01 42.65 38.08
  C 59.38 43.65 63.69 64.80 48.66 75.41
  C 35.63 84.60 14.14 80.47 9.01 64.01
  C 6.00 54.32 11.58 43.94 20.33 39.35
  Q 21.79 38.58 23.43 38.35
  Q 24.20 38.24 23.53 38.63
  C 15.94 43.11 11.43 50.17 13.44 58.71
  C 16.55 71.87 32.73 76.87 43.50 70.75
  C 57.21 62.96 56.08 45.65 42.45 38.55
  Z"
/>
<path fill="#0f9c65" d="
  M 206.75 58.24
  C 207.11 56.86 206.60 55.32 206.61 54.10
  Q 206.68 48.32 205.90 43.41
  Q 205.47 40.70 208.03 41.67
  L 209.35 42.16
  Q 211.99 43.15 211.80 45.98
  Q 210.80 60.33 211.35 74.69
  Q 211.39 75.75 210.33 75.73
  Q 206.40 75.65 206.44 71.77
  A 0.99 0.99 0.0 0 0 204.98 70.89
  Q 200.03 73.63 194.64 73.94
  C 179.22 74.84 192.32 51.33 206.06 58.55
  A 0.48 0.48 0.0 0 0 206.75 58.24
  Z
  M 206.69 66.75
  C 206.97 62.39 207.07 61.03 202.52 59.88
  Q 196.02 58.24 193.62 64.79
  Q 192.87 66.84 193.31 68.28
  C 194.74 73.06 201.60 70.77 205.08 69.14
  Q 206.59 68.43 206.69 66.75
  Z"
/>
<path fill="#0f9c65" d="
  M 78.51 69.04
  A 0.75 0.75 0.0 0 0 79.57 68.96
  Q 86.21 61.16 88.77 51.24
  C 89.43 48.70 89.15 46.53 88.63 44.03
  A 0.66 0.66 0.0 0 1 89.57 43.30
  C 94.26 45.62 94.82 48.65 92.46 53.28
  C 88.68 60.72 83.18 69.06 76.44 74.17
  A 1.63 1.63 0.0 0 1 73.92 73.43
  Q 70.54 64.25 66.92 55.33
  C 65.54 51.94 64.53 49.16 61.64 46.74
  Q 59.98 45.35 62.15 45.25
  C 64.78 45.13 69.17 45.60 70.28 48.74
  Q 73.50 57.86 77.04 66.87
  Q 77.59 68.26 78.51 69.04
  Z"
/>
<path fill="#0f9c65" d="
  M 102.91 49.27
  L 103.05 52.51
  A 1.34 1.34 0.0 0 1 101.31 53.84
  L 99.30 53.22
  A 1.34 1.34 0.0 0 1 98.36 52.01
  L 98.19 48.67
  A 1.34 1.34 0.0 0 1 99.97 47.34
  L 102.02 48.07
  A 1.34 1.34 0.0 0 1 102.91 49.27
  Z"
/>
<path fill="#0f9c65" d="
  M 119.51 70.04
  A 1.03 1.03 0.0 0 0 121.02 70.09
  Q 126.71 64.25 126.82 56.01
  A 0.63 0.62 23.6 0 1 127.90 55.59
  L 129.93 57.74
  A 2.88 2.87 25.4 0 1 130.72 59.95
  C 130.35 64.83 121.98 71.82 118.08 74.10
  Q 116.16 75.22 115.32 73.16
  C 113.50 68.72 111.54 61.87 108.01 58.56
  A 0.46 0.46 0.0 0 1 108.20 57.78
  C 110.15 57.25 114.12 57.52 115.01 59.60
  C 116.23 62.48 117.61 67.85 119.51 70.04
  Z"
/>
<path fill="#0f9c65" d="
  M 235.36 70.46
  A 0.65 0.65 0.0 0 0 234.34 70.18
  Q 229.00 74.60 222.01 73.88
  C 208.83 72.51 222.60 55.51 231.70 57.62
  C 233.83 58.12 234.95 60.70 237.80 58.74
  A 0.95 0.95 0.0 0 1 239.29 59.53
  C 239.28 63.08 239.29 68.70 241.58 71.73
  Q 241.92 72.17 241.53 72.56
  Q 240.19 73.90 238.29 74.40
  A 2.02 2.02 0.0 0 1 235.76 72.50
  Q 235.74 71.49 235.36 70.46
  Z
  M 234.0501 61.7428
  A 6.69 5.39 -35.0 0 0 225.4784 61.1648
  A 6.69 5.39 -35.0 0 0 223.0899 69.4172
  A 6.69 5.39 -35.0 0 0 231.6616 69.9952
  A 6.69 5.39 -35.0 0 0 234.0501 61.7428
  Z"
/>
<path fill="#0f9c65" d="
  M 97.27 58.15
  A 0.45 0.44 76.7 0 1 97.63 57.56
  Q 100.10 57.28 102.41 58.27
  A 1.43 1.42 13.0 0 1 103.28 59.65
  L 102.74 72.53
  Q 102.67 74.28 100.96 73.90
  L 100.02 73.69
  Q 98.19 73.28 98.22 71.41
  C 98.28 67.09 98.77 62.53 97.27 58.15
  Z"
/>
<path fill="#0f9c65" d="
  M 150.54 70.19
  C 145.65 72.80 141.78 75.24 136.00 73.53
  C 125.86 70.51 140.46 52.08 151.11 59.36
  A 0.99 0.98 50.9 0 0 152.04 59.46
  L 153.55 58.87
  A 1.02 1.01 -13.2 0 1 154.93 59.72
  L 155.79 69.03
  Q 155.84 69.57 156.17 70.01
  L 157.39 71.65
  Q 157.83 72.25 157.26 72.72
  Q 155.73 73.99 153.78 74.48
  Q 152.06 74.92 151.73 73.17
  L 151.24 70.53
  Q 151.12 69.88 150.54 70.19
  Z
  M 149.8575 61.9055
  A 6.71 5.40 -33.0 0 0 141.2889 61.0312
  A 6.71 5.40 -33.0 0 0 138.6025 69.2145
  A 6.71 5.40 -33.0 0 0 147.1711 70.0888
  A 6.71 5.40 -33.0 0 0 149.8575 61.9055
  Z"
/>
<path fill="#0f9c65" d="
  M 167.63 66.28
  Q 168.10 65.93 168.48 65.26
  C 170.05 62.52 178.96 52.76 180.61 60.30
  C 181.50 64.34 181.81 68.36 184.03 71.97
  A 0.80 0.79 -30.8 0 1 183.75 73.07
  Q 181.78 74.22 179.52 74.50
  A 0.98 0.97 80.5 0 1 178.46 73.74
  L 176.17 63.11
  A 1.60 1.59 -28.2 0 0 173.50 62.31
  Q 168.74 66.94 166.64 72.98
  Q 166.14 74.42 164.04 73.80
  A 2.19 2.19 0.0 0 1 162.48 71.56
  C 162.70 67.75 163.30 62.58 162.04 58.74
  A 0.73 0.72 81.6 0 1 162.74 57.79
  Q 164.91 57.84 166.83 58.82
  A 1.88 1.87 -72.3 0 1 167.82 60.74
  L 167.10 65.97
  A 0.33 0.33 0.0 0 0 167.63 66.28
  Z"
/>
</svg>
